<svg width="25" height="25" viewBox="0 0 25 25" fill="none" xmlns="http://www.w3.org/2000/svg">
<path d="M12.502 25C19.4055 25 25.002 19.4036 25.002 12.5C25.002 5.59647 19.4055 0 12.502 0C5.59839 0 0.00195312 5.59647 0.00195312 12.5C0.00195312 19.4036 5.59839 25 12.502 25Z" fill="#50B748"/>
<path fill-rule="evenodd" clip-rule="evenodd" d="M11.5632 4.68652C11.023 4.68652 10.4829 4.89486 10.0725 5.31204L8.33294 7.08132C8.26211 7.15319 8.2069 7.23392 8.14909 7.31309L7.29023 6.45527C7.27784 6.39701 7.24586 6.34476 7.1996 6.30723C7.15335 6.26969 7.09563 6.24915 7.03607 6.24902H5.4694C5.40033 6.24902 5.3341 6.27646 5.28526 6.3253C5.23642 6.37414 5.20898 6.44037 5.20898 6.50944C5.20898 6.57851 5.23642 6.64475 5.28526 6.69358C5.3341 6.74242 5.40033 6.76986 5.4694 6.76986L7.19492 8.49538L8.34336 13.8558C8.3539 13.9046 8.37826 13.9494 8.41353 13.9848C8.44881 14.0201 8.49351 14.0446 8.54232 14.0553L9.07773 14.5907L7.91888 19.4709L7.922 19.4745C7.91159 19.5032 7.8918 19.5516 7.8793 19.6542C7.86784 19.7469 7.872 19.8391 7.88555 19.9303C7.88919 19.9584 7.89753 19.985 7.90378 20.0126C7.94022 20.1737 8.01409 20.3239 8.1194 20.4511C8.13398 20.4688 8.14596 20.4876 8.16211 20.5048C8.16836 20.5115 8.17253 20.5193 8.1793 20.5261L12.647 24.9938C15.7218 24.958 18.6756 23.7901 20.9435 21.7134C23.2113 19.6367 24.6341 16.7969 24.9397 13.737L19.2746 8.07194C19.2746 8.00287 19.2472 7.93664 19.1983 7.8878C19.1495 7.83896 19.0833 7.81152 19.0142 7.81152H18.0772L16.0059 5.74017C15.8368 5.57087 15.6359 5.43665 15.4147 5.34522C15.1936 5.25378 14.9566 5.20693 14.7173 5.20736C14.2621 5.20736 13.809 5.37923 13.4569 5.71725L13.0402 5.30007C12.9897 5.25007 12.9324 5.21256 12.8788 5.16881C12.8246 5.12402 12.773 5.07298 12.7152 5.03444C12.659 4.99694 12.598 4.97194 12.5392 4.94069C12.4756 4.90684 12.4142 4.86725 12.348 4.84017C12.3069 4.8235 12.2637 4.81621 12.222 4.80267C12.1355 4.7735 12.0501 4.74225 11.9616 4.72507C11.8301 4.69948 11.6965 4.68658 11.5626 4.68652H11.5632Z" fill="#0C690C"/>
<path fill-rule="evenodd" clip-rule="evenodd" d="M11.5632 4.68652C11.023 4.68652 10.4829 4.89485 10.0725 5.31204L8.33294 7.08133C8.12868 7.29013 7.96949 7.53866 7.86523 7.81152H7.58138L7.29023 6.45527C7.27785 6.39701 7.24586 6.34476 7.19961 6.30723C7.15335 6.2697 7.09563 6.24915 7.03607 6.24902H5.4694C5.40033 6.24902 5.3341 6.27645 5.28526 6.32529C5.23642 6.37412 5.20898 6.44037 5.20898 6.50944C5.20898 6.57851 5.23642 6.64476 5.28526 6.69359C5.3341 6.74243 5.40033 6.76986 5.4694 6.76986H6.82565L8.34336 13.8558C8.35589 13.9142 8.38808 13.9664 8.43453 14.0038C8.48099 14.0413 8.5389 14.0617 8.59857 14.0616H9.20273L7.91888 19.4714L7.93294 19.4297C7.93294 19.4297 7.89492 19.5256 7.8793 19.6542C7.85451 19.8584 7.89004 20.0653 7.98148 20.2494C8.07292 20.4336 8.21628 20.587 8.39388 20.6907C8.76367 20.9058 9.21367 20.8678 9.53867 20.6272C9.64284 20.5496 9.7194 20.4704 9.7194 20.4704C9.73107 20.4582 9.74154 20.4449 9.75065 20.4308L13.9199 14.0616H14.7611C14.7638 14.0681 14.7667 14.0745 14.7699 14.0808L16.4486 17.1021C15.9522 17.4834 15.6257 18.0772 15.6257 18.7491C15.6257 19.8965 16.5616 20.8324 17.709 20.8324C18.8564 20.8324 19.7923 19.8965 19.7923 18.7491C19.7923 17.6017 18.8564 16.6657 17.709 16.6657C17.429 16.6655 17.1518 16.7222 16.8944 16.8324L15.3548 14.0616H17.9725C18.0335 14.0616 18.0925 14.0402 18.1393 14.0012C18.1862 13.9621 18.2178 13.908 18.2288 13.848L19.2704 8.11883C19.2773 8.08128 19.2758 8.04265 19.2661 8.00572C19.2564 7.9688 19.2387 7.93449 19.2143 7.90517C19.1898 7.87585 19.1592 7.85225 19.1247 7.83606C19.0901 7.81988 19.0524 7.81151 19.0142 7.81152H18.0767L16.0059 5.74068C15.8368 5.57129 15.6359 5.43698 15.4148 5.34545C15.1937 5.25392 14.9566 5.207 14.7173 5.20736C14.2605 5.20736 13.8053 5.37974 13.4527 5.72037L13.0517 5.31204C12.8576 5.11393 12.6259 4.95661 12.3702 4.84928C12.1145 4.74196 11.8399 4.68678 11.5626 4.68703L11.5632 4.68652ZM11.5632 5.20109C11.9663 5.20109 12.3694 5.361 12.6819 5.67819L13.0829 6.08652L11.9543 7.2136C11.7867 7.38522 11.655 7.58848 11.5668 7.81152H8.43971C8.51055 7.68131 8.59492 7.55736 8.7043 7.44643L10.4439 5.67819C10.7564 5.36048 11.1595 5.20109 11.5626 5.20109H11.5632ZM14.7173 5.72298C15.0491 5.72298 15.3814 5.85214 15.6376 6.10839L17.3397 7.81152H12.1418C12.1923 7.73079 12.2512 7.65371 12.3225 7.58236L13.7965 6.10839C13.917 5.98657 14.0603 5.8898 14.2184 5.82365C14.3764 5.7575 14.546 5.72329 14.7173 5.72298V5.72298ZM7.69232 8.33236H17.9428C17.9602 8.3341 17.9776 8.3341 17.9949 8.33236H18.7017L17.7559 13.5407H9.55065C9.54631 13.5406 9.54197 13.5406 9.53763 13.5407C9.5267 13.54 9.51574 13.54 9.50482 13.5407H8.80898L7.69232 8.33236V8.33236ZM9.73763 14.0616H13.297L9.3319 20.1188C9.32044 20.1308 9.28503 20.1668 9.22773 20.2089C9.14593 20.2698 9.04803 20.3051 8.94624 20.3107C8.84445 20.3162 8.74328 20.2917 8.65534 20.2402C8.56568 20.1881 8.4933 20.1108 8.44718 20.018C8.40107 19.9251 8.38326 19.8207 8.39596 19.7178C8.40534 19.6418 8.41159 19.6344 8.41159 19.6344C8.4175 19.6206 8.4222 19.6063 8.42565 19.5917L9.73815 14.0616H9.73763ZM17.709 17.1866C18.5751 17.1866 19.2715 17.8829 19.2715 18.7491C19.2715 19.6152 18.5751 20.3116 17.709 20.3116C17.3889 20.3124 17.0764 20.2145 16.8138 20.0315C16.5512 19.8484 16.3514 19.589 16.2415 19.2884C16.1316 18.9878 16.1169 18.6607 16.1994 18.3514C16.2819 18.0422 16.4577 17.7658 16.7027 17.56L16.9621 18.0266C16.7803 18.2141 16.6673 18.4694 16.6673 18.7491C16.6673 19.3215 17.1366 19.7907 17.709 19.7907C18.2814 19.7907 18.7507 19.3215 18.7507 18.7491C18.7507 18.1767 18.2814 17.7074 17.709 17.7074C17.6038 17.7074 17.5038 17.7267 17.4079 17.7563L17.1507 17.2933C17.3286 17.2238 17.5179 17.1876 17.709 17.1866V17.1866ZM17.709 18.2282C17.9996 18.2282 18.2298 18.4584 18.2298 18.7491C18.2298 19.0397 17.9996 19.2699 17.709 19.2699C17.6211 19.2705 17.5345 19.2486 17.4574 19.2064C17.3803 19.1642 17.3152 19.1031 17.2683 19.0287C17.2214 18.9544 17.1942 18.8693 17.1893 18.7815C17.1844 18.6938 17.2019 18.6063 17.2402 18.5272L17.3741 18.7683C17.4079 18.828 17.4639 18.8718 17.5299 18.8904C17.5959 18.909 17.6666 18.9008 17.7266 18.8676C17.7866 18.8344 17.8311 18.7789 17.8504 18.7131C17.8698 18.6473 17.8624 18.5766 17.8298 18.5162L17.6736 18.235C17.6861 18.235 17.6965 18.2282 17.709 18.2282V18.2282Z" fill="white"/>
</svg>
