<svg width="14" height="25" viewBox="0 0 14 25" fill="none" xmlns="http://www.w3.org/2000/svg">
<path d="M6.70788 5.36433C7.08314 4.94709 7.58099 4.71727 8.10967 4.71727C9.20884 4.71727 10.103 5.72322 10.103 6.95978C10.103 8.94251 7.14157 11.1515 6.5871 11.5475C6.03262 11.1515 3.07017 8.94251 3.07017 6.95978C3.07017 5.72322 3.96435 4.71727 5.06351 4.71727C5.59237 4.71727 6.09026 4.94709 6.46531 5.36433C6.53272 5.43895 6.64051 5.43895 6.70788 5.36433ZM7.31146 20.8674C7.0956 21.466 7.03742 21.6658 6.74884 22.524C6.69288 22.6915 6.48165 22.6912 6.42581 22.524C6.21158 21.8834 6.02481 21.3177 5.87088 20.8651C2.74419 20.9679 0.620952 21.7482 0.620952 22.4563C0.620952 23.2149 3.05968 24.0589 6.56081 24.0589C10.0636 24.0589 12.5041 23.2149 12.5041 22.4563C12.504 21.7522 10.4066 20.9759 7.31146 20.8674ZM6.58747 1.74011C9.36632 1.74011 11.6271 4.28349 11.6271 7.40955C11.6271 10.5369 9.36636 13.0811 6.58747 13.0811C3.80775 13.0811 1.5463 10.5369 1.5463 7.40955C1.5463 4.28349 3.80775 1.74011 6.58747 1.74011ZM8.10972 4.32914C7.545 4.32914 7.01021 4.55271 6.58664 4.96261C6.16323 4.55276 5.62848 4.32914 5.06356 4.32914C3.77427 4.32914 2.72529 5.50924 2.72529 6.95973C2.72529 9.35439 6.34361 11.8373 6.49753 11.9419C6.5512 11.9781 6.62053 11.98 6.67691 11.9419C6.83084 11.8373 10.448 9.35439 10.448 6.95973C10.448 5.50928 9.399 4.32914 8.10972 4.32914ZM13.1738 7.40974C13.1738 9.14384 12.6301 10.8304 11.6426 12.1589C7.80383 17.3238 6.74566 21.5288 6.58731 21.9034C6.32012 21.2659 5.36205 17.1501 1.59934 12.2492C0.497661 10.8141 -0.0680972 8.97632 0.00654596 7.07431C0.155749 3.26541 2.9262 0.160792 6.3136 0.00638553C10.0596 -0.166498 13.1738 3.19315 13.1738 7.40974ZM6.58747 1.35208C3.61763 1.35208 1.20138 4.06942 1.20138 7.4096C1.20138 10.7509 3.61763 13.4691 6.58747 13.4691C9.55648 13.4691 11.9721 10.7509 11.9721 7.4096C11.9721 4.06937 9.55648 1.35208 6.58747 1.35208Z" fill="url(#paint0_linear_153_7769)"/>
<defs>
<linearGradient id="paint0_linear_153_7769" x1="-0.621693" y1="21.2225" x2="15.4687" y2="6.92" gradientUnits="userSpaceOnUse">
<stop stop-color="#0095DA"/>
<stop offset="0.5" stop-color="#00AEEE"/>
<stop offset="1" stop-color="#2BC4F3"/>
</linearGradient>
</defs>
</svg>
