<svg width="17" height="21" viewBox="0 0 17 21" fill="none" xmlns="http://www.w3.org/2000/svg">
<mask id="path-1-inside-1_153_7768" fill="white">
<path d="M13.3879 7.02867C13.3879 8.09301 13.0399 9.35817 12.4954 10.6635L13.8253 12.1596C14.6107 10.4024 15.173 8.6051 15.173 7.02867C15.173 3.14282 12.3794 0 8.92529 0C7.28304 0 5.80144 0.712908 4.68578 1.86762L5.96209 3.30347C6.74752 2.51024 7.78285 2.00819 8.92529 2.00819C11.3887 2.00819 13.3879 4.25736 13.3879 7.02867ZM8.92529 4.51843C8.3987 4.51843 7.91673 4.72929 7.53295 5.08072L10.6568 8.59506C10.9692 8.16329 11.1566 7.62108 11.1566 7.02867C11.1566 6.36291 10.9215 5.72442 10.5031 5.25366C10.0846 4.7829 9.51707 4.51843 8.92529 4.51843V4.51843ZM1.25847 0.863522L0 2.2793L2.83824 5.47232C2.74006 5.97437 2.67759 6.4965 2.67759 7.02867C2.67759 12.3002 8.92529 20.0819 8.92529 20.0819C8.92529 20.0819 10.4158 18.2243 11.942 15.7141L14.932 19.0778L16.1905 17.662L1.25847 0.863522ZM8.92529 16.9491C7.13131 14.3586 4.64115 10.1815 4.4805 7.31985L10.6568 14.2682C10.0767 15.2522 9.46973 16.1659 8.92529 16.9491V16.9491Z"/>
</mask>
<path d="M13.3879 7.02867C13.3879 8.09301 13.0399 9.35817 12.4954 10.6635L13.8253 12.1596C14.6107 10.4024 15.173 8.6051 15.173 7.02867C15.173 3.14282 12.3794 0 8.92529 0C7.28304 0 5.80144 0.712908 4.68578 1.86762L5.96209 3.30347C6.74752 2.51024 7.78285 2.00819 8.92529 2.00819C11.3887 2.00819 13.3879 4.25736 13.3879 7.02867ZM8.92529 4.51843C8.3987 4.51843 7.91673 4.72929 7.53295 5.08072L10.6568 8.59506C10.9692 8.16329 11.1566 7.62108 11.1566 7.02867C11.1566 6.36291 10.9215 5.72442 10.5031 5.25366C10.0846 4.7829 9.51707 4.51843 8.92529 4.51843V4.51843ZM1.25847 0.863522L0 2.2793L2.83824 5.47232C2.74006 5.97437 2.67759 6.4965 2.67759 7.02867C2.67759 12.3002 8.92529 20.0819 8.92529 20.0819C8.92529 20.0819 10.4158 18.2243 11.942 15.7141L14.932 19.0778L16.1905 17.662L1.25847 0.863522ZM8.92529 16.9491C7.13131 14.3586 4.64115 10.1815 4.4805 7.31985L10.6568 14.2682C10.0767 15.2522 9.46973 16.1659 8.92529 16.9491V16.9491Z" fill="black"/>
<path d="M12.4954 10.6635L8.01257 8.79373L6.83798 11.6099L8.86513 13.8904L12.4954 10.6635ZM13.8253 12.1596L10.195 15.3865L15.1909 21.0069L18.2596 14.1417L13.8253 12.1596ZM4.68578 1.86762L1.19271 -1.50733L-1.93517 1.73002L1.0555 5.09453L4.68578 1.86762ZM5.96209 3.30347L2.33182 6.53038L5.77113 10.3996L9.41356 6.72096L5.96209 3.30347ZM7.53295 5.08072L4.25274 1.49853L0.723101 4.73061L3.90267 8.30763L7.53295 5.08072ZM10.6568 8.59506L7.02652 11.822L11.0457 16.3436L14.592 11.4422L10.6568 8.59506ZM11.1566 7.02867H6.29947H11.1566ZM1.25847 0.863522L4.88874 -2.36339L1.25847 -6.44745L-2.37181 -2.36339L1.25847 0.863522ZM0 2.2793L-3.63027 -0.947614L-6.49864 2.2793L-3.63027 5.50621L0 2.2793ZM2.83824 5.47232L7.60509 6.4045L8.0668 4.04348L6.46852 2.24541L2.83824 5.47232ZM8.92529 20.0819L5.1378 23.1228L8.92639 27.8416L12.7136 23.1217L8.92529 20.0819ZM11.942 15.7141L15.5723 12.4872L11.2061 7.57515L7.79179 13.1907L11.942 15.7141ZM14.932 19.0778L11.3017 22.3047L14.932 26.3888L18.5623 22.3047L14.932 19.0778ZM16.1905 17.662L19.8208 20.8889L22.6891 17.662L19.8208 14.4351L16.1905 17.662ZM4.4805 7.31985L8.11077 4.09294L-1.15037 -6.32583L-0.36901 7.59211L4.4805 7.31985ZM10.6568 14.2682L14.8409 16.735L16.6383 13.6864L14.2871 11.0413L10.6568 14.2682ZM8.53079 7.02867C8.53079 7.16031 8.45414 7.73505 8.01257 8.79373L16.9782 12.5333C17.6256 10.9813 18.2451 9.02571 18.2451 7.02867H8.53079ZM8.86513 13.8904L10.195 15.3865L17.4555 8.93268L16.1257 7.43658L8.86513 13.8904ZM18.2596 14.1417C19.143 12.1654 20.0301 9.62381 20.0301 7.02867H10.3159C10.3159 7.58638 10.0784 8.63948 9.39095 10.1775L18.2596 14.1417ZM20.0301 7.02867C20.0301 1.01391 15.5839 -4.85714 8.92529 -4.85714V4.85714C9.11516 4.85714 9.40129 4.93208 9.71415 5.28405C10.0354 5.64543 10.3159 6.247 10.3159 7.02867H20.0301ZM8.92529 -4.85714C5.81225 -4.85714 3.11105 -3.49282 1.19271 -1.50733L8.17885 5.24257C8.33843 5.0774 8.48797 4.98123 8.60514 4.92838C8.71627 4.87825 8.81832 4.85714 8.92529 4.85714V-4.85714ZM1.0555 5.09453L2.33182 6.53038L9.59237 0.0765629L8.31605 -1.35929L1.0555 5.09453ZM9.41356 6.72096C9.41853 6.71594 9.38684 6.75002 9.30116 6.78853C9.20883 6.83004 9.0769 6.86533 8.92529 6.86533V-2.84895C6.3013 -2.84895 4.0693 -1.68818 2.51063 -0.114013L9.41356 6.72096ZM8.92529 6.86533C8.79061 6.86533 8.6664 6.83245 8.5739 6.78841C8.48737 6.74721 8.45201 6.70824 8.45011 6.7061C8.44828 6.70405 8.46936 6.72785 8.49094 6.78521C8.5116 6.84015 8.53079 6.92109 8.53079 7.02867H18.2451C18.2451 2.12846 14.5932 -2.84895 8.92529 -2.84895V6.86533ZM8.92529 -0.338714C7.04553 -0.338714 5.42416 0.425861 4.25274 1.49853L10.8131 8.66291C10.4093 9.03272 9.75187 9.37557 8.92529 9.37557V-0.338714ZM3.90267 8.30763L7.02652 11.822L14.2871 5.36815L11.1632 1.85381L3.90267 8.30763ZM14.592 11.4422C15.4961 10.1926 16.0138 8.65643 16.0138 7.02867H6.29947C6.29947 6.58574 6.4423 6.13398 6.72163 5.7479L14.592 11.4422ZM16.0138 7.02867C16.0138 5.24732 15.3899 3.44041 14.1333 2.02675L6.8728 8.48057C6.45312 8.00843 6.29947 7.4785 6.29947 7.02867L16.0138 7.02867ZM14.1333 2.02675C12.8602 0.594456 11.0023 -0.338714 8.92529 -0.338714L8.92529 9.37557C8.03189 9.37557 7.30904 8.97134 6.8728 8.48057L14.1333 2.02675ZM-2.37181 -2.36339L-3.63027 -0.947614L3.63027 5.50621L4.88874 4.09043L-2.37181 -2.36339ZM-3.63027 5.50621L-0.792031 8.69923L6.46852 2.24541L3.63027 -0.947614L-3.63027 5.50621ZM-1.92861 4.54013C-2.07318 5.27941 -2.17956 6.11964 -2.17956 7.02867H7.53473C7.53473 6.87335 7.55331 6.66932 7.60509 6.4045L-1.92861 4.54013ZM-2.17956 7.02867C-2.17956 9.2204 -1.55151 11.3494 -0.858713 13.0891C-0.144561 14.8825 0.7736 16.5923 1.63598 18.0303C2.5056 19.4803 3.36761 20.7349 4.01 21.6254C4.33298 22.0731 4.60495 22.4349 4.80059 22.6904C4.89851 22.8183 4.97762 22.9199 5.0348 22.9927C5.06339 23.0291 5.08653 23.0584 5.10382 23.0802C5.11247 23.091 5.11965 23.1001 5.12533 23.1072C5.12817 23.1107 5.13064 23.1138 5.13272 23.1164C5.13376 23.1177 5.1347 23.1189 5.13555 23.1199C5.13597 23.1205 5.13654 23.1212 5.13675 23.1214C5.13729 23.1221 5.1378 23.1228 8.92529 20.0819C12.7128 17.0411 12.7132 17.0416 12.7137 17.0422C12.7138 17.0423 12.7142 17.0429 12.7145 17.0432C12.7149 17.0437 12.7153 17.0442 12.7156 17.0446C12.7162 17.0453 12.7164 17.0455 12.7162 17.0453C12.7159 17.0449 12.7141 17.0427 12.7109 17.0387C12.7046 17.0307 12.6926 17.0156 12.6755 16.9937C12.6411 16.95 12.586 16.8793 12.5131 16.7841C12.367 16.5934 12.1509 16.3061 11.8882 15.9419C11.3591 15.2086 10.6592 14.1883 9.9669 13.0339C9.26735 11.8675 8.62359 10.6435 8.1663 9.49517C7.68765 8.29321 7.53473 7.47268 7.53473 7.02867H-2.17956ZM8.92529 20.0819C12.7136 23.1217 12.7139 23.1214 12.7141 23.1211C12.7142 23.121 12.7145 23.1206 12.7147 23.1204C12.715 23.12 12.7154 23.1195 12.7158 23.119C12.7166 23.118 12.7175 23.1168 12.7185 23.1156C12.7205 23.1131 12.7229 23.1101 12.7256 23.1067C12.7311 23.0999 12.738 23.0912 12.7463 23.0808C12.7628 23.0599 12.785 23.0319 12.8124 22.997C12.8671 22.9273 12.9429 22.8301 13.0367 22.7077C13.2242 22.4632 13.485 22.1168 13.7956 21.6878C14.4135 20.8342 15.2447 19.6315 16.0923 18.2374L7.79179 13.1907C7.11317 14.3069 6.43594 15.2881 5.9271 15.9909C5.67428 16.3401 5.46708 16.615 5.32737 16.7972C5.25762 16.8882 5.205 16.9557 5.17227 16.9973C5.15591 17.0182 5.14456 17.0325 5.13855 17.0401C5.13554 17.0439 5.13388 17.046 5.13359 17.0463C5.13345 17.0465 5.13366 17.0462 5.13421 17.0455C5.13449 17.0452 5.13486 17.0447 5.13531 17.0442C5.13554 17.0439 5.13579 17.0436 5.13606 17.0432C5.1362 17.0431 5.13642 17.0428 5.13649 17.0427C5.13671 17.0424 5.13694 17.0421 8.92529 20.0819ZM8.31177 18.941L11.3017 22.3047L18.5623 15.8509L15.5723 12.4872L8.31177 18.941ZM18.5623 22.3047L19.8208 20.8889L12.5602 14.4351L11.3017 15.8509L18.5623 22.3047ZM19.8208 14.4351L4.88874 -2.36339L-2.37181 4.09043L12.5602 20.8889L19.8208 14.4351ZM12.9184 14.1839C12.1024 13.0055 11.1636 11.515 10.4308 10.056C9.63032 8.46247 9.35215 7.4421 9.33 7.0476L-0.36901 7.59211C-0.230502 10.0593 0.816731 12.5583 1.75004 14.4163C2.7509 16.4089 3.9542 18.3022 4.93216 19.7144L12.9184 14.1839ZM0.850223 10.5468L7.02652 17.4951L14.2871 11.0413L8.11077 4.09294L0.850223 10.5468ZM6.4727 11.8014C5.97399 12.6473 5.43927 13.4543 4.93711 14.1767L12.9135 19.7215C13.5002 18.8775 14.1793 17.8571 14.8409 16.735L6.4727 11.8014Z" fill="black" mask="url(#path-1-inside-1_153_7768)"/>
</svg>
