<svg width="26" height="37" viewBox="0 0 26 37" fill="none" xmlns="http://www.w3.org/2000/svg">
<path d="M13.0802 0C12.5164 0 11.9819 0.291536 11.496 0.787208C11.2433 1.04964 11.01 1.3607 10.7961 1.71061C9.64932 3.49889 8.83293 6.39517 8.38574 8.99019H9.57157C9.98957 6.64787 10.7088 4.28617 11.5056 2.78943C11.7291 2.3424 11.9624 1.98276 12.2054 1.71061C12.4969 1.37043 12.7885 1.18583 13.0801 1.18583C14.3824 1.18583 15.8889 5.12194 16.5887 8.99012H17.7745C17.0747 4.87897 15.4126 0 13.0802 0Z" fill="#C7C7C7"/>
<path d="M9.92093 1.18583C10.2125 1.18583 10.5041 1.37043 10.7955 1.71061C11.0385 1.98276 11.2719 2.3424 11.5051 2.78943C12.2924 4.28617 13.0018 6.64787 13.4197 8.99019H14.6056C14.1681 6.39517 13.3421 3.49889 12.2049 1.71061C11.9814 1.35098 11.7481 1.03991 11.4954 0.787208C11.0192 0.291536 10.4847 0 9.92093 0C7.58834 0 5.92645 4.87897 5.22656 8.99012H6.41239C7.1024 5.12194 8.60879 1.18583 9.92093 1.18583Z" fill="#E4E4E3"/>
<path d="M21.9043 36.0787C21.9043 36.0787 23.7848 34.3165 24.8311 33.9207C25.2725 33.7537 25.5875 33.3648 25.5376 32.8955L23.0001 9.95996L21.9043 36.0787Z" fill="#F5B948"/>
<path d="M0 9.96017V34.0497C0 35.3915 1.08786 36.4794 2.4298 36.4794H20.5708C21.9127 36.4794 23.0006 35.3915 23.0006 34.0496V9.96017C23.0006 9.42338 22.5655 8.98828 22.0287 8.98828H0.971964C0.435176 8.98828 0 9.42346 0 9.96017Z" fill="#FFCA67"/>
<path d="M17.7006 23.2397L11.5004 29.4398L5.30762 23.2397C3.59147 21.5308 3.59147 18.7557 5.30762 17.0469C7.00706 15.3329 9.7996 15.3315 11.5004 17.0469C13.2093 15.3307 15.9843 15.3307 17.7006 17.0469C19.4056 18.7519 19.4049 21.5354 17.7006 23.2397Z" fill="#D75548"/>
<path d="M12.6711 19.2429C12.6711 19.6232 12.7791 19.8954 12.9199 20.0832C13.1076 20.3367 13.5114 20.2991 13.6521 20.0175C14.253 18.8157 15.7364 17.6421 15.7364 17.6421C16.126 16.2479 14.2342 16.8347 14.2342 16.8347C12.5537 17.4215 12.6711 19.2429 12.6711 19.2429ZM8.04666 24.253C6.7805 23.4011 5.73709 21.7765 5.63852 20.0928C5.54884 18.3056 6.73946 16.9023 8.72306 16.6855C7.22274 17.436 6.22699 18.3665 6.32146 20.063C6.3818 21.5281 7.19242 23.0688 8.04666 24.253Z" fill="#E9715F"/>
<path d="M21.5747 12.5117H1.4248V13.2717H21.5747V12.5117Z" fill="#F5B948"/>
<path d="M21.5747 32.1963H1.4248V32.9563H21.5747V32.1963Z" fill="#F5B948"/>
</svg>
